<svg id="Layer_1" data-name="Layer 1" xmlns="http://www.w3.org/2000/svg" width="750" height="438.95" viewBox="0 0 750 438.95"><defs><style>.cls-1{fill:#002e62;}</style></defs><title>eredivisie-logo-freelogovectors.net_</title><g id="Layer_2" data-name="Layer 2"><g id="Layer_1-2" data-name="Layer 1-2"><path class="cls-1" d="M400.06,336l21.41,21.55c-3.41,2-6.81,4.11-10.35,6a80.91,80.91,0,0,1-32.05,8.36c-23.82,1-44.38-6.8-61.39-23.54a76.26,76.26,0,0,1-22.26-42.39c-4.12-24,1.7-45.37,17-64.09a76.93,76.93,0,0,1,47.64-27.93c24.25-4.4,46.37,1,65.65,16.3a77.19,77.19,0,0,1,28.64,47.22,81.26,81.26,0,0,1,.57,26.23c-.14.43-.14.71-.28,1.13H371.42a4.06,4.06,0,0,1-3.69-1.56c-7.52-7.65-15.17-15.31-22.83-22.82a9.55,9.55,0,0,1-1-1.14h78.83c0-.42-.14-1-.14-1.42-6.38-19.42-19.14-31.9-39.42-35.73-25.09-4.53-49.76,11.77-56,36.87-4.54,18.57-.29,35,12.76,48.92a46.73,46.73,0,0,0,28.36,14.6,47.93,47.93,0,0,0,31.19-6.1C399.63,336.23,399.92,336.09,400.06,336Z" transform="translate(0 -155.52)"/><path class="cls-1" d="M458.62,357.07c1.56-2.12,3.26-4.53,4.82-6.94a105.37,105.37,0,0,0,15.88-41.69,104.09,104.09,0,0,0,.71-27.36,105.4,105.4,0,0,0-34-67.92,102.84,102.84,0,0,0-52.18-26.23,101.25,101.25,0,0,0-26.94-1.42A103.36,103.36,0,0,0,310,208.05c-.14,0-.14.15-.14,0l-22-21.69c2.27-1.7,4.4-3.54,6.81-5.1a137.47,137.47,0,0,1,55-23.4,130.68,130.68,0,0,1,34.17-2c36,2.69,66.79,17,91.6,43.24a134,134,0,0,1,34.17,65.08,129.38,129.38,0,0,1,2.69,35.45,136,136,0,0,1-28.64,76.28c-1,1.28-2,2.56-3,3.69Z" transform="translate(0 -155.52)"/><path class="cls-1" d="M269.19,205.08,291.3,227.2a3.11,3.11,0,0,1-.56.85A105.28,105.28,0,0,0,271,274.55a103.52,103.52,0,0,0-.85,28.08,105.4,105.4,0,0,0,22.68,56.29,103.63,103.63,0,0,0,62,38,101.54,101.54,0,0,0,24.53,2,103.62,103.62,0,0,0,59-21.41l1.56-1.27,21.84,21.83c-45.66,39-128,46.79-184.47-9.92C221.4,332,229.2,250.73,269.19,205.08Z" transform="translate(0 -155.52)"/><path class="cls-1" d="M314.27,513.47V470.36c0-1.55.43-2,2-1.84,6.81.14,13.61,0,20.42,0h1.56V592h-24v-4.68a14,14,0,0,0-2.12,1.14c-14.61,8.08-33.89,7.23-47.36-4a42.52,42.52,0,0,1-15.31-27.94A43.18,43.18,0,0,1,257.42,524a39.07,39.07,0,0,1,27.65-16.59A42.76,42.76,0,0,1,313,512.9C313.42,513,313.85,513.33,314.27,513.47Zm0,36.86a67.88,67.88,0,0,1,.15-9.35c.42-3.69-1.28-6.1-4-8.23a3.38,3.38,0,0,1-.85-.71c-8.23-6.38-22.55-7.09-30.63,2.13a24,24,0,0,0-6,17.58,22.29,22.29,0,0,0,9.93,18.15c9.07,6.1,22.69,4.11,29.77-4.25a5.31,5.31,0,0,0,1.56-4.26c-.14-3.54,0-7.37,0-11.06Z" transform="translate(0 -155.52)"/><path class="cls-1" d="M749.29,559.13H688.74A18.34,18.34,0,0,0,696.11,570a23.23,23.23,0,0,0,21.7,2.56c2-.71,3.54-2.56,5.39-4a2.24,2.24,0,0,1,1.56-.71H748a6.32,6.32,0,0,1,.71.14,31.77,31.77,0,0,1-10.07,15.59,42.24,42.24,0,0,1-23.25,9.79c-10.64,1.13-21-.14-30.35-5.53-11.62-6.81-18.14-17-20.13-30.2a44.61,44.61,0,0,1,4.54-28.64c5.95-11.49,15.59-18.3,28.21-21,10.64-2.27,21.13-1.56,30.91,3.4,11.35,5.82,17.87,15.32,20.42,27.65a70.61,70.61,0,0,1,.71,18.15C749.57,558,749.43,558.56,749.29,559.13ZM726,542.39a17.65,17.65,0,0,0-5.53-11.34c-6.38-5.95-19.85-5.67-26.51.85a21.14,21.14,0,0,0-5.67,10.49Z" transform="translate(0 -155.52)"/><path class="cls-1" d="M85.14,559.13H24.6v1.13a19.76,19.76,0,0,0,16.45,13.61,25,25,0,0,0,10.77-.57,12.2,12.2,0,0,0,7-4.53,2.86,2.86,0,0,1,1.42-.85H84.43a31.12,31.12,0,0,1-6.09,11.76c-7,8.23-16,12.48-26.52,13.76a50.12,50.12,0,0,1-25.38-2.84c-14.46-6-23-16.87-25.66-32.33A45.21,45.21,0,0,1,6,527.36c6.53-11.2,16.59-17.44,29.07-19.56,9.64-1.7,19-1,27.93,3.26,12.2,5.95,19.14,15.88,21.55,29.07C86,546.36,85.57,552.6,85.14,559.13ZM61.75,542.39c-1-5.95-3.41-10.63-8.65-13.61a19.32,19.32,0,0,0-10.92-2,18.31,18.31,0,0,0-14.6,7.37A17.8,17.8,0,0,0,24,542.39Z" transform="translate(0 -155.52)"/><path class="cls-1" d="M239,559.13H177.73a18.74,18.74,0,0,0,7.94,11.34,23.22,23.22,0,0,0,20.7,2.27c2.13-.71,3.83-2.56,5.67-3.83.57-.43,1.14-1,1.56-1h24.25a29.86,29.86,0,0,1-1.7,4.25c-5,10.63-13.47,17-24.67,19.85-13.47,3.55-26.52,2.41-38.57-5-10.63-6.38-16.73-16.17-18.86-28.36a45.34,45.34,0,0,1,3.12-27.37c6.1-13.32,16.87-21,31.19-23.53a45.29,45.29,0,0,1,27.37,3c12.62,6,19.85,16,22.26,29.64a68.26,68.26,0,0,1,.71,9.22A70.09,70.09,0,0,1,239,559.13Zm-23.82-16.74c-.71-5-2.55-9.21-6.52-12.19-5.95-4.54-15.88-4.68-22.54-.57a19.29,19.29,0,0,0-8.65,12.76Z" transform="translate(0 -155.52)"/><path class="cls-1" d="M534.47,563.52h21.7a34.94,34.94,0,0,0,1.7,4.68c2.13,4.25,5.81,6.38,10.35,7.23a28.18,28.18,0,0,0,13.75-.57,13.42,13.42,0,0,0,3-1.27c4.4-2.55,4.54-7.52,0-9.93a29.37,29.37,0,0,0-7.51-2.41c-7.24-1.42-14.47-2.41-21.56-4.25a24.1,24.1,0,0,1-15.17-10.78,25.12,25.12,0,0,1,9.08-34,46.55,46.55,0,0,1,19.42-5.53,52.22,52.22,0,0,1,22,2.7c11.06,3.83,17.58,11.48,19.28,23.11v2.13H589.06c-1-6.24-5.39-9.93-14.32-10.21a53.6,53.6,0,0,0-8.22,1,4.91,4.91,0,0,0-2,.85c-4.68,2.69-4.82,7.94-.28,10.78,3,2,6.38,2.41,9.78,3,7.09,1.28,14.47,1.85,21.27,4.4s12.2,6.52,14.61,13.61c3.82,11.49,0,25-12.91,31.62-8.22,4.11-16.87,5.1-25.8,4.82a45.14,45.14,0,0,1-21.84-5.67c-7.94-4.68-12.48-11.77-14-20.84A15.68,15.68,0,0,1,534.47,563.52Z" transform="translate(0 -155.52)"/><path class="cls-1" d="M391.41,508.79H415.8c1,0,1.13.57,1.41,1.28l19.71,48.2c.29.71.57,1.28,1,2.42.42-.86.7-1.42,1-2,6.66-16.16,13.18-32.33,19.71-48.49a2,2,0,0,1,2.12-1.56h23.82a9.58,9.58,0,0,1-.71,1.7c-11.62,26.8-23.11,53.6-34.73,80.39a1.59,1.59,0,0,1-1.85,1.14H428.7a1.91,1.91,0,0,1-2.13-1.56c-9.5-22.12-19.14-44.38-28.78-66.5C395.8,519,393.68,514,391.41,508.79Z" transform="translate(0 -155.52)"/><path class="cls-1" d="M150.37,529.92c-4.26.56-8.51,1-12.62,1.7a31.16,31.16,0,0,0-7.09,2.27,15.61,15.61,0,0,0-9.5,15V592H97.34V508.93h23.82v9.36a41.88,41.88,0,0,1,29.21-10.92Z" transform="translate(0 -155.52)"/><path class="cls-1" d="M519.3,592H495.48V508.93H519.3Z" transform="translate(0 -155.52)"/><path class="cls-1" d="M358.09,508.93h23.68V592H358.09V508.93Z" transform="translate(0 -155.52)"/><path class="cls-1" d="M650.6,592H627.06V508.93H650.6Z" transform="translate(0 -155.52)"/></g></g></svg>